<svg version="1" xmlns="http://www.w3.org/2000/svg" width="400" height="400" viewBox="0 0 300.000000 300.000000"><path d="M164 73.1c0 .5-.4.7-1 .4-2-1.3-6.7 5.4-6.1 8.7 0 .5-.4.8-1 .8s-.9.7-.6 1.5c.4.8.2 1.7-.3 2-.5.3-.7 1.2-.3 2 .3.8 0 1.5-.6 1.5s-.8.7-.5 1.5c.4.8.2 1.5-.3 1.5s-.9 1-.8 2.2c.1 1.3-.2 3-.6 3.9-.5.9-1 3.1-1.1 4.8-.1 1.7-.5 3.1-.8 3.1-.7 0-.8.9-1.1 5.5-.1 1.4-.6 2.5-1.1 2.5-.5 0-.8.6-.7 1.2.4 3.2-.2 6.9-1 6.4-.5-.3-.8.8-.7 2.4.1 1.7-.2 3-.7 3-.4 0-.5.4-.2 1 .3.5.3 1.6-.2 2.2-.4.7-.8 2.1-.9 3-.1 1-.2 1.9-.4 2-.4.6-1.2 4.4-1.3 6.5 0 1.3-.4 2.3-.7 2.3-.6 0-.8.8-1.2 5-.1 1.1-.6 2-1.1 2-.5 0-.4.6.2 1.4.8 1 .8 1.6-.2 2.4-.7.6-1.4 2.3-1.5 3.9-.1 1.5-.7 3-1.2 3.1-.6.2-.8.8-.5 1.2.3.5 0 2.8-.6 5.2-.6 2.4-1 5.1-1 6 0 1-.4 1.8-.9 1.8-.4 0-.7.8-.5 1.7.1 1-.1 2.2-.5 2.8-.9 1.1-1 1.5-1 5.1 0 1.4-.4 2.3-.9 1.9-.6-.3-.8.5-.5 1.9.2 1.4 0 2.8-.6 3.1-1.5.9-1.2 2.8.3 1.9.6-.4.4.2-.6 1.3-.9 1.1-1.5 2.2-1.2 2.4.2.3-.2 2.7-1 5.3-.8 2.7-1.2 5.2-.9 5.7.3.5.1.9-.3.9-.5 0-1 .8-1 1.7-.1 1-.8 5-1.6 8.8-1 5.2-1.1 7.6-.3 9 1.9 3.3 3.4 4.5 5.5 4.5 1.2 0 2.1.4 2.1.8 0 1.4 4.3 1.1 7.7-.5 1.8-.8 3.3-2 3.3-2.5s.7-1.6 1.5-2.5c.8-.8 1.3-1.9 1-2.4-.4-.5-.3-.9.2-.9.4 0 .9-1.1.9-2.5.1-1.4.5-3.3.9-4.3.5-.9.7-2.5.6-3.4-.1-1 .2-1.8.7-1.8.5 0 .8-1.4.7-3-.1-1.7.2-3 .7-3 .4 0 .8-1.4.8-3.1 0-1.6.3-2.8.8-2.6.4.3.8-1.3.9-3.4.2-2.2.8-4.9 1.4-6 .9-1.7.8-2-.3-1.3s-1.1.5 0-.9c.8-.9 1.1-2 .8-2.6-.3-.5-.2-1.1.4-1.3.5-.1 1.1-1.7 1.3-3.3.2-1.7.6-3.5.9-4 .3-.6.4-1.8.3-2.8-.2-.9.1-1.5.6-1.1.5.3 1-.6 1-2 .1-2.5.4-3.8.9-5.4.6-1.4.8-2.7.9-5.5 0-1.6.5-2.6.9-2.3.5.3.8-.8.7-2.4-.1-1.7.1-3 .4-3 .4 0 .7-.8.8-1.8 0-.9.4-2.7.7-4 .3-1.2.9-3.2 1.2-4.5.3-1.2.6-3.2.7-4.5.1-1.2.5-2.2 1-2.2.4 0 .5-.5.2-1-.3-.6-.2-1 .2-1 .5 0 .9-1 1-2.3.1-2.9.7-5.9 1.4-7.2.4-.6.5-2 .4-3.3-.1-1.2.2-2.2.6-2.2.4 0 1-.7 1.3-1.6.3-.8.2-1.3-.3-1-.8.5.6-4.5 2-6.9.3-.6.5-2.4.5-4.2-.1-1.7.2-2.9.7-2.6.6.4 1.1-2.4 1-7 0-.9.4-1.7.9-1.7.4 0 .7-.3.7-.8-.1-.4 0-.9.1-1.2.7-1.9 1.2-5.4 1.5-10.9.3-5.6.1-6.7-1.6-7.9-1.1-.7-1.6-1.8-1.3-2.4.4-.6-.1-.8-1.4-.4-1.1.4-2.3.3-2.6-.3-.7-1.1-2.5-.9-4.5.3-1 .6-1.2.5-.7-.2.4-.7.2-1.2-.3-1.2-.6 0-1.1.5-1.1 1.1zM105.6 96.5c-.9.9-2 1.4-2.5 1-.6-.3-1.3 0-1.8.7-.4.7-1.2 1.3-1.8 1.4-1.1 0-8.1 2.9-10.8 4.5-1 .5-2.2.7-2.6.4-.5-.3-1.2.2-1.5 1-.3.8-.9 1.4-1.3 1.4-1.2-.3-4.7 1.3-5.5 2.5-.5.7-.8.6-.8-.3 0-1.1-.4-.9-1.4.5-.8 1-1.8 1.6-2.2 1.2-.4-.4-1.9.1-3.4 1.2-1.6 1.1-4 2.1-5.4 2.2-1.4.1-2.8.9-3.1 1.6-.3.8-1.2 1.1-2 .8-.8-.3-1.5-.2-1.5.3 0 .9-8 3.8-9.3 3.3-.5-.1-.6.2-.2.7.5.9-7 3.7-8.8 3.3-.5-.2-.6.2-.2.8.3.5.1 1.1-.4 1.1-2.2.3-2.7.4-6.1 2.1-5.5 2.6-9.4 4.1-10.2 4-.5-.1-.8.3-.8.8s-.3.9-.8.9c-2.2-.4-4.2.2-3.7 1.1.3.5.1 1.1-.4 1.1-.6.1-1.7.2-2.3.3-.7.1-1.6-.3-2-.9-.5-.6-.8-.2-.8.8s-.4 1.5-1 1.2c-.5-.3-1-.2-1 .4 0 .5-1.3 1.2-3 1.6-1.6.4-3 1.1-3 1.6s-.3.8-.7.8c-2-.3-2.9.3-3 2.1-.1 1.3.2 1.8 1 1.4.8-.5.8-.3-.1.7-1.5 1.7-1.6 4.3 0 3.3.7-.5.8-.3.2.7-1.5 2.4-1.6 6-.2 7.7 1 1.2 1 1.4.1.8-1.6-.9-1.6-.1-.2 2.6.6 1.1.7 1.8.2 1.5-.6-.4-1 .7-1.1 2.3 0 2.4.6 3.2 3.8 4.9 2.1 1.1 4.1 1.7 4.4 1.4.3-.4.6-.1.6.5 0 .7.9 1.2 2 1.2s2 .4 2 .8 1 .8 2.2.9c1.1.1 2.4.7 2.8 1.3.4.6 1.7 1.2 2.8 1.3 1.2.1 2.2.5 2.2.9s.9.8 1.9.8c1.1 0 2.3.4 2.6 1 .3.5 1.5 1 2.6 1s1.8.4 1.5.8c-.2.4.5.9 1.6.9 1.2.1 2.5.8 2.9 1.5.5.7.9.9.9.4s.7-.2 1.7.5c.9.8 1.7 1.3 1.7 1.2.3-.7 4.6 1.1 4.6 1.9 0 .5.4.7.8.4.5-.3 3 .6 5.7 1.9 2.6 1.4 5.2 2.2 5.8 1.8.6-.4.8 0 .5.8-.4 1 .3 1.5 2.5 1.6 1.7.1 3.4.8 3.8 1.4.4.6 1.2.8 1.8.5.6-.4 1.1-.2 1.1.3 0 .6.9 1.1 2 1.1s2 .4 2 .8 2.5 1.6 5.5 2.7c3 1 5.5 2.2 5.5 2.7s.4.7.9.3c.5-.3 1.5.1 2.3.8.7.8 1.9 1.2 2.6.9.6-.2 1.2.1 1.2.8 0 .6.4.9.8.6.5-.3 2.7.6 5 1.9 2.4 1.3 4 2 3.7 1.5-.3-.6.1-.7.9-.4.9.3 1.6 1 1.6 1.5s.9.9 2 .9 2 .4 2 .8c0 1.5 2.4.9 4.5-1 1.2-1.2 1.4-1.7.5-1.3-1.1.4-1.5-.2-1.5-2 0-1.4.4-2.5.8-2.5s.3-.9-.3-2c-.8-1.4-.8-2 0-2s.8-.6 0-2-.8-2 0-2 .8-.6 0-2c-.6-1.1-.7-2-.3-2 .4 0 .8-1.8.8-4s-.3-4-.7-4c-.4 0-.4-.7-.1-1.7.4-1 .2-1.4-.4-1-.6.4-1.8 0-2.7-.9-.9-.8-2-1.3-2.5-.9-.5.3-1.2.1-1.6-.5-.3-.5-1.3-1-2.2-1-.9 0-2.5-.8-3.6-1.8-1.1-.9-1.7-1.1-1.3-.4.6 1.1.4 1.1-1 .3-3.8-2-9.7-4.4-11-4.4-.8 0-1.4-.4-1.4-.9 0-.4-.7-.8-1.5-.8s-2.3-.4-3.3-.9c-2.3-1.3-5.2-2.3-7.7-2.8-1.1-.2-2.1-.8-2.3-1.3-.2-.6-1.2-1-2.2-1-1 0-2.2-.5-2.5-1-.3-.6-1.7-1-3.1-1-1.3 0-2.4-.5-2.4-1.1 0-.5-.4-.8-.9-.4-.5.3-1.2.1-1.6-.5-.4-.6-1.1-.8-1.6-.5-.5.4-.9.1-.9-.6 0-.6-.8-.9-2-.6-1.2.3-2 0-2-.7 0-.6-1.2-1.3-2.7-1.4-1.6-.1-3-.7-3.1-1.2-.2-.6-1.4-1-2.7-1-3.9 0-3.7-2.5.3-4.1 2.1-.7 4.5-1.3 5.4-1.3 1 .1 1.5-.2 1.3-.6-.6-1 2.4-2.2 3.6-1.4.5.3.9 0 .9-.5 0-.6.3-1 .8-.9.4.1 2.1-.5 3.7-1.2 1.7-.7 3.2-1.4 3.5-1.4.3-.1 1.1-.5 1.9-1 1-.6 1.2-.6.6.3-.9 1.5 3.5-.8 4.7-2.4.4-.6.8-.6.8-.2 0 .4 1 .2 2.3-.5 2.1-1.2 2.7-1.4 6.5-2.2.9-.2 1.6-.8 1.5-1.4-.1-.5.7-.8 1.7-.5 1.1.3 2 .1 2-.5s.9-.9 2-.7c1.2.2 2.3-.2 2.7-1 .3-.8.9-1.2 1.4-.9.6.3 1.6.1 2.3-.5.7-.6 2.2-1.2 3.3-1.4 1.2-.2 2.8-.9 3.7-1.6.9-.7 2.3-1.1 3.1-.7.8.3 1.5.2 1.5-.2s2-1.5 4.4-2.5c4-1.7 7-4.7 4.5-4.7-.6 0-.6-.7.1-1.9.7-1.4.6-2.1-.3-2.4-.9-.4-.9-.6.1-.6.8-.1 1-.6.6-1.3-1.1-1.7-1.1-5.8-.1-5.8.4 0 .3-.9-.3-2-.8-1.4-.8-2 0-2s.8-.6 0-2-.8-2 0-2c.7 0 .8-.6 0-1.9-.6-1.1-.6-2.1-.1-2.3.5-.2.4-1.1-.4-2.1-1.2-1.6-1.4-1.6-2.9-.2zM191.9 96.7c-.1.4-.1 1.1 0 1.5 0 .5-.3.8-.9.8-.6 0-.6.9 0 2.5.6 1.7.6 2.5-.1 2.5-.6 0-.7.5-.3 1.2 1.1 1.7 1.1 5.8.1 5.8-.4 0-.5.5-.1 1.2.9 1.5 1.1 10.8.2 10.8-.4 0-.5.6-.2 1.4.5 1.2 4.2 3.5 6.9 4.2 2.9.8 8.1 3 8.6 3.7.3.5.9.8 1.3.8.3-.1.7-.1.9 0 .1 0 .9.2 1.7.4 3.3.8 8.5 3.1 9.2 4 .4.5.8.7.8.3 0-.4 2.6.4 5.8 1.6 6.5 2.6 8.4 3.3 9.5 3.5.4 0 2.1.8 3.7 1.6 1.7.9 3 1.2 3 .8 0-.5.4-.2.9.6s2.2 1.4 3.9 1.5c1.7 0 2.8.4 2.6.8-.6 1 3.4 2 4.7 1.2.8-.4.9-.3.5.4-.5.8 0 1.2 1.3 1.2 1.2 0 2.1.4 2.1 1 0 .5 1.1 1 2.5 1s2.5.5 2.5 1.1c0 .5.5.7 1 .4.6-.3 1-.2 1 .4 0 1.3-3.5 3.2-4.4 2.4-.3-.3-.6-.1-.6.6s-.4.9-1 .6c-.5-.3-1-.1-1 .5s-.4.9-.9.5c-.6-.3-2.6.4-4.6 1.5-2 1.1-3.4 1.6-3 1 .3-.5-1-.1-2.9 1.1-1.9 1.1-4 1.8-4.5 1.5-.5-.3-1.1-.1-1.3.4-.2.6-1 1.2-1.8 1.4-.8.1-2.8.8-4.5 1.6-4.2 1.8-10.2 4.1-11.7 4.5-.5.2-1.1.4-1.5.5-.5.1-1.1.2-1.5.1-.5 0-.8.3-.8.8 0 .7-4.5 2.3-7.5 2.5-.5.1-1.3.5-1.7 1.1-.4.5-1.2 1.1-1.8 1.1-.5.1-1.2.3-1.5.4-.3.1-.8.4-1.2.5-.5.1-2.4.8-4.3 1.6-1.9.7-3.8 1.2-4.2 1.1-.5-.1-.8.3-.8.9 0 .5-.4.7-1 .4-.5-.3-1-.1-1 .4 0 .6-.3 1-.7 1-2.1-.3-3.7.2-2.8.9.6.4 1 1.6 1 2.7s-.4 2.3-1 2.7c-.7.5-.7.8 0 .8.6 0 1 1.1 1 2.5s-.3 2.5-.7 2.5c-.4 0-.3 1.1.2 2.5.6 1.6.6 2.5-.1 2.5-.6 0-.6.6-.1 1.7.5 1 .6 2.7.2 3.8-.4 1.1-.4 2.9 0 4s.5 2.6.3 3.2c-.3.7 0 1.3.5 1.3.6 0 1.2-.5 1.4-1.1.2-.6 1.5-1.2 3-1.2 1.4-.1 2.4-.5 2.1-1-.2-.4.5-.7 1.5-.7 1.1 0 2.3-.7 2.6-1.6.4-1 1.3-1.3 2.6-.9 1.1.3 2 .2 2-.2 0-.9 6.9-3.9 8.3-3.5.4.1.7-.3.7-.9 0-.5.5-.7 1-.4.6.3 1 .1 1-.5s.5-.8 1-.5c.6.3 1 .1 1-.6s.3-1 .6-.6c.4.3 2.3-.2 4.4-1.3 2.1-1.1 4-1.6 4.4-1.3.3.4.6.1.6-.6s.6-1.1 1.4-.8c.8.3 1.7-.1 2-.9.3-.9 1-1.3 1.5-.9.5.3 1.2.1 1.6-.5.3-.5 1.5-1 2.6-1 1 0 1.9-.3 1.9-.8 0-.4 1.1-1.2 2.5-1.9 1.8-.8 2.3-.8 1.8 0-.4.6.8.1 2.5-1.2 1.8-1.2 3.2-1.9 3.2-1.5 0 .3.6.1 1.3-.5.8-.6 1.7-.8 2-.4.4.3.7.1.7-.5 0-.7.9-1.2 2-1.2s2.3-.6 2.6-1.4c.3-.8 1.2-1.2 1.9-1 .7.3 1.6 0 2-.5.3-.6 1.1-.9 1.6-.6.5.4.9.1.9-.4 0-.6.3-1 .8-.9.4.1 2.4-.6 4.6-1.5 2.1-.9 4.2-1.7 4.7-1.7s.9-.4.9-.8 1-.9 2.2-.9c1.3-.1 2.4-.7 2.6-1.3.2-.5.8-.8 1.3-.4.5.3.9.1.9-.5 0-.5.9-.8 2-.6 1.1.2 1.8 0 1.5-.4-.2-.5.8-1.1 2.4-1.4 1.6-.3 3.6-1.3 4.5-2.2.9-.9 1.6-1.3 1.6-.9 0 .3.6.1 1.3-.5.8-.6 1.6-.9 1.8-.7.3.3.4-4 .4-9.5 0-5.4-.3-9.9-.7-9.9-.5 0-.8-.5-.8-1.1 0-.5.4-.8.9-.5.5.3.9-.6.9-1.9 0-1.4-.5-2.5-1-2.5s-.7-.4-.4-.8c.2-.4-.5-.9-1.6-.9-1.2-.1-2.5-.8-2.9-1.5-.5-.7-.9-.9-.9-.4s-.6.3-1.3-.3c-.8-.6-1.7-.8-2-.4-.4.3-.7.1-.7-.6s-.4-.9-1-.6c-.5.3-1 .1-1-.4 0-.6-.3-1-.7-.9-.5.1-1.9-.4-3.3-1.2-1.4-.7-2.6-1.3-2.7-1.2-.2.1-5.9-2.3-10.7-4.6-.5-.3-.6.2-.2.9.4.8 0 .5-.9-.6s-1.8-1.9-2-1.8c-1.2.7-2.6.2-2-.6.3-.6-.4-.8-1.5-.6-1.1.2-2-.1-2-.6 0-.6-.4-.7-1-.4-.5.3-1 .1-1-.5s-.4-.8-1-.5c-.5.3-1 .2-1-.3 0-.6-1.6-1.3-3.5-1.6-2.4-.5-3.3-1.1-2.9-1.9.4-.7.4-.9-.1-.5-.4.4-2 .1-3.6-.8-1.6-.8-2.9-1.2-2.9-.9 0 .3-1-.1-2.3-1-1.3-.8-2.7-1.2-3-.8-.4.3-.7.1-.7-.5 0-.7-1.2-1.2-2.6-1.2-1.4 0-2.3-.4-1.9-1 .3-.6-.3-1-1.4-1-1.1 0-2.3-.5-2.6-1-.4-.6-1.1-.8-1.6-.5-.5.4-.9.1-.9-.6s-.3-1-.6-.6c-.4.3-2.4-.3-4.5-1.3-2.1-1.1-4.5-2-5.4-2-.8 0-1.5-.5-1.5-1 0-.6-.6-1-1.3-1-1.9 0-6.7-2.4-6.7-3.3 0-.5-.5-.5-1-.2-.6.4-2.2 0-3.5-.9-1.3-.9-3.1-1.6-4-1.6-.8 0-1.5-.5-1.5-1.2 0-.6-.3-.8-.6-.5-.4.3-1.5.2-2.5-.4-1.1-.5-2-.6-2-.2z"/></svg>