<svg version="1" xmlns="http://www.w3.org/2000/svg" width="185.333" height="185.333" viewBox="0 0 139.000000 139.000000"><path d="M33.1 8.6c-1.4.6-3.5 2.1-4.5 3.3-1.9 2.1-2 4.2-2 58.4-.1 52.2 0 56.5 1.7 59.8 2.2 4.5 4.7 5.4 12.5 5 2.4-.1 6.8-4.1 7.7-7.1.4-1.4.8-10.9.9-21.2.1-13.9.4-19 1.4-20 .9-.9 5.9-1.3 18.5-1.4 18-.1 22.7-.6 30.4-2.9 10.9-3.3 20.4-13.1 22.9-23.5.4-1.9.9-3.8 1-4.3.1-.4.3-.8.4-1 .1-.1.3-2.9.4-6.2.4-13-5.7-26.2-14.8-32-4.3-2.6-10.8-5.8-12.6-6-.3-.1-3-.5-6-1-8.4-1.3-54.8-1.2-57.9.1zm59.6 19.9c7.2 3.8 10.3 9.9 9.8 18.9-.5 10.1-3.9 15.2-12.2 18.4-4 1.6-7.6 1.9-22 1.8-9.4-.1-17.5-.5-18-.9-.8-.9-1.3-35.8-.5-38.9.6-2.3 1.4-2.4 20.7-2.3 16.7.1 17.1.2 22.2 3z"/></svg>