<svg version="1" xmlns="http://www.w3.org/2000/svg" width="933.333" height="933.333" viewBox="0 0 700.000000 700.000000"><path d="M325.5 22c-72.6 6-140.2 34.4-193.4 81.5-13.4 11.8-32.8 32.5-42.2 45-9.6 12.7-12.8 17.3-21.4 31-4 6.3-17.6 32.5-21.3 41-3.8 8.8-11.1 29.2-12.7 35.7-.9 3.5-2.2 8.1-3 10.3-1.7 5.2-7 32.2-8.7 44.5-1.7 12.8-1.7 65.2 0 78 1.7 12.3 7 39.3 8.7 44.5.8 2.2 2.1 6.8 3 10.3 1.6 6.5 8.9 26.9 12.7 35.7 1.2 2.7 5.6 11.8 9.9 20 16.1 31.8 36.3 59.4 61.4 84 36.7 36 76.4 60.8 123.7 77.1 35.9 12.3 67.9 17.7 106.3 17.7 23.9.1 35.1-.9 59-4.9 34.9-5.9 75.4-20.8 106.6-39.2 11-6.5 28.9-18.8 28.9-19.8 0-.2-2.4 1.1-5.2 2.8-26.6 15.8-55.6 29-80.3 36.6-29.1 9-52.5 12.8-84.5 13.8-70.5 2.3-138.6-16.7-194-53.9-1.4-1-4.3-2.9-6.5-4.4-2.2-1.4-4.2-2.9-4.5-3.2-.3-.3-4.1-3.3-8.5-6.6-10.3-7.7-13.1-10.2-30-27-16.8-16.9-19.3-19.7-27-30-3.3-4.4-6.3-8.2-6.6-8.5-.3-.3-3.2-4.6-6.4-9.5-3.2-5-6.8-10.6-8-12.5-3.4-5.2-13.6-24.5-16.9-32-1.6-3.6-3.5-7.9-4.2-9.5-8-17.7-15.6-44.1-19.9-69.3-13.2-76.5 4.5-158.8 48.1-223.7 10.6-15.7 10.2-15.2 17.3-24 6.3-7.8 9.1-11 19.6-22.4 4.6-5 22.7-21.3 32.1-28.8 18.8-15.1 43.5-30.2 65.7-40 33.6-14.8 67.3-23.7 103.1-27.2 13.8-1.4 48.7-1.4 63.1-.1 11.6 1.1 37.2 5.2 46.5 7.5 14.6 3.6 28.1 7.7 33.5 10 1.7.7 4.8 1.8 7 2.5 14.2 4.5 41.1 18.5 61 31.6 19.2 12.7 23.5 16 44.8 33.9 1.5 1.3 2.7 2 2.7 1.5 0-1.3-23.7-23.6-31.7-29.7-24.5-18.8-52.2-35.4-74.3-44.4-4.1-1.6-8.4-3.4-9.5-3.9-9.2-4.3-41-13.6-56.5-16.5-26.3-5-64.5-7.4-87.5-5.5z"/><path d="M316 66.1c-27.6 2.9-52.7 8.4-73.5 16-12.4 4.5-11.1 4-26 11-14.6 6.9-43.9 24.6-47.5 28.8-.3.4-3 2.5-6 4.7-14 10.4-35.2 31.6-46.9 46.9-1.7 2.2-3.5 4.5-4 5.1-1.8 2.2-12.8 18-14.9 21.4-5 8.3-15.7 28.7-19.4 37.2C56.5 286 49.7 344.3 58.9 399c6.6 39.3 23.5 80.4 46.4 112.9 3.2 4.6 6.3 8.9 6.8 9.5.5.6 2.3 2.9 4 5.1 11.7 15.3 32.9 36.5 46.9 46.9 3 2.2 5.7 4.3 6 4.7 1.6 1.8 13.1 9.5 24 16.1 10.3 6.2 22.8 12.6 36.5 18.8 12.4 5.6 42.3 14.3 58 16.9 3.9.7 8.4 1.4 10 1.7 41.5 7.1 95.4 2.1 135.5-12.7 4.7-1.7 9.8-3.5 11.3-3.9 1.6-.5 3.4-1.3 4-1.8.7-.5 2.3-1.3 3.7-1.7 3.6-1.1 26.6-12.6 32.5-16.3 2.8-1.7 6.6-4 8.5-5.1 5.4-2.9 26-18.5 33.9-25.6 14.9-13.3 31-30.9 43.7-47.8 15-20 35.8-62.1 41.8-84.7.8-3 1.8-6.6 2.4-8 .5-1.4 1.9-7.9 3.1-14.5 1.2-6.6 2.8-15.4 3.6-19.5.8-4.1 1.9-14.8 2.6-23.8 1.3-17.6.2-41.5-2.6-56.2-.8-4.1-2.4-12.9-3.6-19.5-1.2-6.6-2.6-13.1-3.1-14.5-.6-1.4-1.6-5-2.4-8-6-22.6-26.8-64.7-41.8-84.7-12.7-16.9-28.8-34.5-43.7-47.8-7.9-7.1-28.5-22.7-33.9-25.6-1.9-1.1-5.7-3.4-8.5-5.1-5.4-3.4-29.9-15.8-31.2-15.8-.4 0-2.1-.7-3.8-1.6-1.6-.9-4.1-2-5.5-2.4-1.4-.5-6.3-2.2-11-3.9-13.9-5.2-33.3-10.1-47-12.1-26.3-3.8-51.9-4.9-70-2.9zm108.7 104c5.2 2 11.9 10.8 23.3 30.7s13.1 21.9 17.5 21.3c2.9-.4 10.2-5.7 17.3-12.4 3.5-3.3 6.5-5.7 6.8-5.4.4.3-.7 3-2.4 5.9-1.7 2.9-4 7-5.1 9-1.2 2.1-2.9 5.3-3.9 7-1 1.8-4.7 8.5-8.2 14.8-3.5 6.3-7.2 13.1-8.3 15-2.8 5-6.4 11.5-10.5 19-1.9 3.6-3.6 6.6-3.7 6.7-.1.2-5.3.5-11.6.7-6.3.3-24.4 1.2-40.4 2-15.9.9-29.8 1.6-30.7 1.6-3.4 0-1.7-1.6 5-4.9 11.5-5.7 18.3-10.2 19.3-12.9.8-2.2.4-3.8-2.7-9.6-2-3.9-4.2-7.8-4.9-8.6-.6-.8-2.3-3.5-3.6-5.9-1.3-2.5-6-10.6-10.5-18-7.7-13.1-8.1-13.6-11.4-13.6-3.1 0-3.5.4-8.7 10-3 5.5-8.5 15.4-12.3 22-3.7 6.6-8.3 14.9-10.2 18.5-2 3.6-4.8 8.7-6.3 11.5-1.6 2.7-5.3 9.4-8.2 14.7-3 5.4-5.7 9.8-6 9.8-.3 0-2-1.6-3.7-3.5-2-2.2-10.6-7.5-24.1-14.8-43.6-23.7-46-25.1-46.3-27.5-.2-1.3.1-2.8.6-3.5.5-.7 2.4-3.9 4.2-7.2 1.8-3.3 6.6-11.9 10.5-19 4-7.2 8.8-15.9 10.9-19.5 2-3.6 5.2-9.4 7.1-13 4.1-7.6 11.2-15.3 16.9-18.3 8.8-4.5 12.1-4.7 79-4.1 34.6.3 64 1 65.3 1.5zM606 287.4c5.9 21.1 8.4 40 8.3 64.6 0 15.8-.5 23.8-2.2 35-2.2 14.4-8.8 41.6-11.5 46.8-.7 1.5-2.1 5.2-3.1 8.2-2 6-14.6 31.3-15.3 30.6-.2-.3 1.4-4.4 3.6-9.3 11.1-24.1 17.9-48.7 23.2-83.6 2.7-18.2 2.1-49.6-1.5-72.2-1.6-10.2-5.9-30.7-7.1-34.1-.5-1.5-.4-1.6.5-.8.7.7 3 7.3 5.1 14.8zm-87.7 28.5c11.3 19.8 21.3 38.3 22.1 41.2 2.1 7 2 19.1-.2 25.4-1 2.7-3.6 7.7-5.7 10.9-4.4 6.5-10.9 16.6-15.2 23.6-1.5 2.5-5.3 8.5-8.4 13.5-3.2 4.9-7.9 12.4-10.5 16.5-4.9 7.8-6.8 10.8-12.6 20-1.9 3-5.7 8.9-8.3 13-5.7 9.1-10.7 14.4-16 17.3-3.8 2.1-5.5 2.2-31.6 2.5l-27.6.3-.7 5.2c-.3 2.9-.6 10.7-.6 17.5 0 7.9-.4 12.1-1 11.7-.5-.3-2-4-3.2-8.3-1.6-5.6-6.2-14.5-17.2-33.6-19.3-33.6-19.8-34.6-19.1-37.4.4-1.8 20.9-40.6 31-58.7 2-3.7 2.8-6 6.6-18.3 2.7-8.9 3.2-5.8 2.6 14.5l-.6 20.1 17.2.7c9.5.3 24.2.5 32.7.3 15-.3 15.5-.4 15.8-2.4.3-2.5-1.1-5.2-31.3-57.7-11.8-20.6-14.7-26.2-13.8-27.5.9-1.5 8.2-6.3 13.8-9.1 1.1-.6 4.1-2.3 6.7-3.8 2.6-1.5 14.8-8.6 27.2-15.7 14-8 22.9-13.8 23.7-15.2.7-1.3 1.8-2.4 2.5-2.4.6 0 10.4 16.2 21.7 35.9zm-265.7-17.2c1.6 2.5 5.6 9 8.9 14.4 17.7 29 28.4 46.2 35 56.4 1.8 2.7 3.2 5.2 3 5.4-.6.5-6.5-3.8-12.4-9.2-7.3-6.5-14.7-10.7-19.2-10.7h-3.6l-12.8 22.2c-7.1 12.3-14.1 24.6-15.7 27.4l-2.8 5.2 2.5.6c1.4.4 24 .6 50.2.6l47.8-.1.3 46.1.2 46h-83.8l-4.9-2.4c-2.6-1.3-6.4-3.1-8.4-4-6.2-2.9-13.2-11.3-18.9-22.7-2.9-5.7-8.1-15.6-11.5-21.9-3.4-6.3-8.8-16.5-12-22.5-3.2-6.1-7.4-14.2-9.5-18-19.5-36.7-19.4-36.5-19.4-44 0-6.3.4-7.8 4.2-15 2.4-4.4 5.7-10.4 7.5-13.2 13.9-22.7 15.4-26.4 12.3-29.6-.8-.8-5.2-3.6-9.8-6.2-15.4-8.9-18.3-7.9 25.7-8.5 21.5-.3 40.1-.6 41.6-.8 2-.2 3.1.7 5.5 4.5zM588 125.5c1.3 1.4 2.6 2.5 2.8 2.5.3 0-.5-1.1-1.8-2.5s-2.6-2.5-2.8-2.5c-.3 0 .5 1.1 1.8 2.5z"/></svg>