<?xml version="1.0" encoding="UTF-8" standalone="no"?><!DOCTYPE svg PUBLIC "-//W3C//DTD SVG 1.1//EN" "http://www.w3.org/Graphics/SVG/1.1/DTD/svg11.dtd"><svg width="100%" height="100%" viewBox="0 0 240 130" version="1.1" xmlns="http://www.w3.org/2000/svg" xmlns:xlink="http://www.w3.org/1999/xlink" xml:space="preserve" style="fill-rule:evenodd;clip-rule:evenodd;stroke-linejoin:round;stroke-miterlimit:1.41421;"><g><path d="M87.005,89.182l0,24.268l-87.005,-37.388l0,-20.752l87.005,-37.388l0,24.44l-60.627,23.153l60.627,23.667Z" style="fill:#98c379;fill-rule:nonzero;"/><path d="M140.757,17.408l-24.216,98.872c-0.807,3.258 -1.514,5.831 -2.119,7.717c-0.606,1.886 -1.528,3.359 -2.768,4.417c-1.239,1.057 -3.041,1.586 -5.405,1.586c-5.881,0 -8.822,-2.515 -8.822,-7.546c0,-1.315 0.577,-4.602 1.73,-9.862l24.13,-98.872c1.268,-5.259 2.479,-8.861 3.632,-10.804c1.153,-1.944 3.402,-2.916 6.746,-2.916c2.883,0 5.088,0.686 6.616,2.058c1.528,1.373 2.292,3.258 2.292,5.66c0,1.772 -0.605,5.002 -1.816,9.69Z" style="fill:#e5c07b;fill-rule:nonzero;"/><path d="M240,76.062l-87.005,37.559l0,-24.268l60.8,-23.667l-60.8,-23.324l0,-24.097l87.005,37.217l0,20.58Z" style="fill:#61afef;fill-rule:nonzero;"/></g></svg>